<svg viewBox="0 0 18 18" fill="none" xmlns="http://www.w3.org/2000/svg"><path d="M1.4994 5.2494V9.8784C1.49948 10.2762 1.65758 10.6577 1.9389 10.9389L6.9714 15.9714C7.28288 16.2853 7.69901 16.4735 8.14042 16.5002C8.58182 16.5269 9.01761 16.3902 9.36465 16.1162M9.8784 1.4994C10.2762 1.49948 10.6577 1.65758 10.9389 1.9389L15.9714 6.9714C16.1401 7.13873 16.274 7.33782 16.3654 7.55716C16.4568 7.77651 16.5038 8.01178 16.5038 8.2494C16.5038 8.48702 16.4568 8.72229 16.3654 8.94164C16.274 9.16098 16.1401 9.36007 15.9714 9.5274L12.5274 12.9714C12.3601 13.1401 12.161 13.274 11.9416 13.3654C11.7223 13.4568 11.487 13.5038 11.2494 13.5038C11.0118 13.5038 10.7765 13.4568 10.5572 13.3654C10.3378 13.274 10.1387 13.1401 9.9714 12.9714L4.9389 7.9389C4.65758 7.65766 4.49948 7.27619 4.4994 6.8784V2.2494C4.4994 2.05049 4.57842 1.85972 4.71907 1.71907C4.85972 1.57842 5.05049 1.4994 5.2494 1.4994H9.8784ZM8.2494 4.8744C8.2494 5.08151 8.08151 5.2494 7.8744 5.2494C7.66729 5.2494 7.4994 5.08151 7.4994 4.8744C7.4994 4.66729 7.66729 4.4994 7.8744 4.4994C8.08151 4.4994 8.2494 4.66729 8.2494 4.8744Z" stroke="currentColor" stroke-width="1.6" stroke-linecap="round"/></svg>
